<?xml version="1.0" encoding="utf-8"?>
<!-- Generator: Adobe Illustrator 18.1.1, SVG Export Plug-In . SVG Version: 6.00 Build 0)  -->
<svg version="1.1" id="Layer_1" xmlns="http://www.w3.org/2000/svg" xmlns:xlink="http://www.w3.org/1999/xlink" x="0px" y="0px"
	 viewBox="0 0 128 128" enable-background="new 0 0 128 128" xml:space="preserve">
<linearGradient id="SVGID_1_" gradientUnits="userSpaceOnUse" x1="45.9781" y1="63.6282" x2="136.1519" y2="83.222">
	<stop  offset="0" style="stop-color:#7E2C6A"/>
	<stop  offset="1" style="stop-color:#561247"/>
</linearGradient>
<path fill-rule="evenodd" clip-rule="evenodd" fill="url(#SVGID_1_)" d="M61.2,38.3l3.1,16l0,0l4.4,22.9H58.5h-9.4
	c-2.4,0-4.6-1.9-4.9-4.3L42,54.5l-10,25c18.8,0,37.6,0,56.4,0c2.5,0,4.7-0.6,6.6-1.5c1.8-0.9,3.3-2.3,4.5-3.9c1.2-1.6,2-3.5,2.6-5.7
	c0.6-2.1,0.8-4.3,0.8-6.7c0-2.4-0.4-4.4-1.1-6.1c-0.8-1.7-1.9-3-3.4-3.9c-1.5-0.9-3.4-1.4-5.7-1.4c-0.4,0-0.9,0-1.4,0
	c-0.5,0-0.9,0-1.3,0.1l-3.8,26.7H70.8l-3.8-19.9L68.5,46l1-7l0,0c0.4-2.1,2-3.7,4.1-4l0,0l0,0c0.1,0,0.1,0,0.2,0
	c0.9-0.1,1.8-0.2,2.7-0.3c2.3-0.2,4.7-0.4,7.3-0.5l0.1,0l0,0l0.1,0l0.1,0v0l0.1,0l0,0l0.1,0l0,0l0.1,0l0,0l0.1,0l0,0l0.1,0l0,0
	c1.1,0,2.2-0.1,3.3-0.1l0,0l0.4,0v0l0.1,0l0,0l0.4,0l0,0l0.1,0l0,0l0.1,0v0l0.1,0l0,0l0.1,0l0,0l0.1,0v0l0.1,0l0,0l0.1,0l0,0l0.1,0
	l0,0l0.1,0v0l0.1,0l0.1,0l0.1,0l0.1,0l0,0l0.1,0l0,0l0.1,0l0.1,0l0.1,0l0,0h0.1l0.1,0l0.1,0l0.1,0h0.1h0.1c5,0,9.5,0.6,13.5,1.8
	c4,1.2,7.5,3,10.4,5.3c2.9,2.3,5.1,5.2,6.6,8.6c1.5,3.4,2.3,7.3,2.3,11.6c0,4.3-0.5,8.1-1.5,11.5c-1,3.3-2.4,6.2-4.2,8.7
	c-1.8,2.5-3.9,4.6-6.2,6.3c-2.4,1.8-4.9,3.2-7.6,4.3c-2.7,1.1-5.5,2-8.4,2.6c-2.9,0.6-5.7,0.9-8.5,1.2c-2.8,0.3-5.4,0.4-7.9,0.4
	h-1.1l-1.1,0h-1.1h-1.1h-1.1l-47.6,0l0,0c-6.6,0-13.1,0-19.7,0c-2.7,0-4.9-2.2-4.9-4.9c0-0.9,0.2-1.5,0.6-2.3l4-8.5L24.2,45l3.9-8.2
	c0.8-1.8,2.5-3,4.5-3h0h6.8h8.9h8C59,33.9,60.7,35.7,61.2,38.3z"/>
<path fill-rule="evenodd" clip-rule="evenodd" fill="none" d="M62,38.3l3.1,16l0,0l4.4,22.9H59.4H50c-2.4,0-4.6-1.9-4.9-4.3
	l-2.2-18.3l-10,25c18.8,0,37.6,0,56.4,0c2.5,0,4.7-0.6,6.6-1.5c1.8-0.9,3.3-2.3,4.5-3.9c1.2-1.6,2-3.5,2.6-5.7
	c0.6-2.1,0.8-4.3,0.8-6.7c0-2.4-0.4-4.4-1.1-6.1c-0.8-1.7-1.9-3-3.4-3.9c-1.5-0.9-3.4-1.4-5.7-1.4c-0.4,0-0.9,0-1.4,0
	c-0.5,0-0.9,0-1.3,0.1L87,77.2H71.6l-3.8-19.9L69.4,46l1-7l0,0c0.4-2.1,2-3.7,4.1-4l0,0l0,0c0.1,0,0.1,0,0.2,0
	c0.9-0.1,1.8-0.2,2.7-0.3c2.3-0.2,4.7-0.4,7.3-0.5l0.1,0l0,0l0.1,0l0.1,0v0l0.1,0l0,0l0.1,0l0,0l0.1,0l0,0l0.1,0l0,0l0.1,0l0,0
	c1.1,0,2.2-0.1,3.3-0.1l0,0l0.4,0v0l0.1,0l0,0l0.4,0l0,0l0.1,0l0,0l0.1,0v0l0.1,0l0,0l0.1,0l0,0l0.1,0v0l0.1,0l0,0l0.1,0l0,0l0.1,0
	l0,0l0.1,0v0l0.1,0l0.1,0l0.1,0l0.1,0l0,0l0.1,0l0,0l0.1,0l0.1,0l0.1,0l0,0h0.1l0.1,0l0.1,0l0.1,0H93h0.1c5,0,9.5,0.6,13.5,1.8
	c4,1.2,7.5,3,10.4,5.3c2.9,2.3,5.1,5.2,6.6,8.6c1.5,3.4,2.3,7.3,2.3,11.6c0,4.3-0.5,8.1-1.5,11.5c-1,3.3-2.4,6.2-4.2,8.7
	c-1.8,2.5-3.9,4.6-6.2,6.3c-2.4,1.8-4.9,3.2-7.6,4.3c-2.7,1.1-5.5,2-8.4,2.6c-2.9,0.6-5.7,0.9-8.5,1.2c-2.8,0.3-5.4,0.4-7.9,0.4
	h-1.1l-1.1,0h-1.1h-1.1h-1.1l-47.6,0l0,0c-6.6,0-13.1,0-19.7,0c-2.7,0-4.9-2.2-4.9-4.9c0-0.9,0.2-1.5,0.6-2.3l4-8.5L25.1,45l3.9-8.2
	c0.8-1.8,2.5-3,4.5-3h0h6.8h8.9h8C59.8,33.9,61.5,35.7,62,38.3z"/>
<path fill="#F6921E" d="M59.3,72.9c-0.8,0.7-1.6,1.2-2.5,1.6c-0.9,0.3-1.9,0.5-3,0.5c-1.7,0-3.1-0.5-4.1-1.5c-1-1-1.5-2.2-1.4-3.8
	c0.1-0.9,0.4-1.8,0.9-2.5c0.6-0.8,1.4-1.6,2.7-2.4c-0.5-0.7-0.8-1.3-1-2c-0.2-0.6-0.3-1.3-0.3-1.8c0.1-1.4,0.6-2.5,1.6-3.4
	c1-0.9,2.2-1.3,3.6-1.3c1.3,0,2.4,0.4,3.3,1.3c0.9,0.8,1.3,1.9,1.2,3.1c-0.1,0.8-0.3,1.5-0.8,2.3c-0.5,0.7-1.1,1.4-1.9,2.1l1.9,2
	l1.5-2.7h53.9l0.1-1.9l5,3.7l-5.5,3.7l0.1-1.9H63.2c-0.2,0.3-0.4,0.7-0.6,1c-0.2,0.3-0.4,0.7-0.6,1l3.8,4.1h-5.6L59.3,72.9
	L59.3,72.9z M56.8,70l-2.6-2.8c-0.5,0.3-0.9,0.6-1.2,1c-0.3,0.4-0.4,0.7-0.5,1.2c0,0.5,0.1,0.9,0.5,1.3c0.3,0.3,0.8,0.5,1.3,0.5
	c0.4,0,0.8-0.1,1.1-0.2C55.8,70.7,56.3,70.4,56.8,70L56.8,70z M55.3,63c0.5-0.4,0.8-0.9,1.1-1.2c0.2-0.4,0.4-0.8,0.4-1.1
	c0-0.4-0.1-0.7-0.3-0.9c-0.2-0.2-0.5-0.3-0.9-0.3c-0.4,0-0.7,0.1-1,0.4c-0.3,0.3-0.4,0.6-0.4,1c0,0.4,0.1,0.8,0.3,1.2
	C54.7,62.3,55,62.7,55.3,63z"/>
</svg>
